<svg width="134" height="26" viewBox="0 0 134 26" fill="none" xmlns="http://www.w3.org/2000/svg">
<path d="M12.8052 6.26465C12.8052 5.83398 12.915 5.5 13.1348 5.2627C13.5127 4.87598 13.9302 4.68262 14.3872 4.68262C14.8267 4.68262 15.1519 4.79688 15.3628 5.02539C15.7407 5.41211 15.9297 5.8252 15.9297 6.26465V15.4009C15.9297 16.5698 15.5254 17.5103 14.7168 18.2222C13.917 18.9165 12.8931 19.2637 11.645 19.2637C10.2212 19.2637 9.14893 18.8242 8.42822 17.9453C8.19971 17.752 7.99756 17.752 7.82178 17.9453C7.0835 18.8242 6.01123 19.2637 4.60498 19.2637C3.36572 19.2637 2.34619 18.9121 1.54639 18.209C0.720215 17.4883 0.307129 16.5391 0.307129 15.3613V6.26465C0.307129 5.83398 0.416992 5.5 0.636719 5.2627C1.01465 4.87598 1.43213 4.68262 1.88916 4.68262C2.32861 4.68262 2.65381 4.79688 2.86475 5.02539C3.24268 5.41211 3.43164 5.8252 3.43164 6.26465V15.48C3.43164 15.9282 3.58105 16.2754 3.87988 16.5215C4.17871 16.7588 4.54346 16.8774 4.97412 16.8774C5.41357 16.8774 5.78711 16.7632 6.09473 16.5347C6.40234 16.2974 6.55615 15.9458 6.55615 15.48V6.27783C6.55615 5.84717 6.66602 5.51318 6.88574 5.27588C7.26367 4.88916 7.68115 4.6958 8.13818 4.6958C8.57764 4.6958 8.90283 4.80566 9.11377 5.02539C9.4917 5.4209 9.68066 5.83838 9.68066 6.27783V15.48C9.68066 15.9458 9.83008 16.2974 10.1289 16.5347C10.4365 16.7632 10.8101 16.8774 11.2495 16.8774C11.689 16.8774 12.0581 16.7588 12.3569 16.5215C12.6558 16.2754 12.8052 15.9282 12.8052 15.48V6.26465ZM21.4668 6.146C21.4668 5.61865 21.7129 5.24951 22.2051 5.03857C22.3457 4.97705 22.4995 4.94629 22.6665 4.94629H25.7778C26.8501 4.94629 27.7686 5.32861 28.5332 6.09326C29.2979 6.85791 29.6802 7.77637 29.6802 8.84863V17.7212C29.6802 18.3892 29.3638 18.8594 28.731 19.1318C28.5376 19.2197 28.3267 19.2637 28.0981 19.2637C27.8696 19.2637 27.6719 19.2241 27.5049 19.145C27.3467 19.0747 27.2104 18.9912 27.0962 18.8945C26.9995 18.8066 26.9028 18.6836 26.8062 18.5254C26.7095 18.3584 26.6348 18.2354 26.582 18.1562C26.5293 18.0771 26.4458 18.0376 26.3315 18.0376C26.2173 18.0376 26.125 18.0771 26.0547 18.1562L25.8438 18.3804C25.2549 18.9692 24.5649 19.2637 23.7739 19.2637C22.8335 19.2637 22.0205 18.877 21.335 18.1035C20.6494 17.3389 20.3066 16.4248 20.3066 15.3613V13.542C20.3066 12.4697 20.689 11.5513 21.4536 10.7866C22.2095 10.0308 23.1279 9.65283 24.209 9.65283H26.5557V8.88818C26.5557 8.44873 26.4458 8.11914 26.2261 7.89941C25.8394 7.5127 25.4307 7.31934 25 7.31934H22.6665C22.3413 7.31934 22.0908 7.23584 21.915 7.06885C21.6162 6.7876 21.4668 6.47998 21.4668 6.146ZM23.4312 15.335C23.4312 15.7832 23.541 16.1128 23.7607 16.3237C24.1475 16.6929 24.5034 16.8774 24.8286 16.8774C25.1538 16.8774 25.4087 16.8467 25.5933 16.7852C25.7866 16.7236 25.9536 16.6357 26.0942 16.5215C26.4019 16.2754 26.5557 15.9502 26.5557 15.5459V12.0127H25C24.5518 12.0127 24.2178 12.1226 23.998 12.3423C23.6201 12.7202 23.4312 13.1289 23.4312 13.5684V15.335ZM40.3721 5.2627C40.6006 5.04297 40.8071 4.89355 40.9917 4.81445C41.1851 4.72656 41.3872 4.68262 41.5981 4.68262C41.8179 4.68262 42.0244 4.72217 42.2178 4.80127C42.4111 4.88037 42.5781 4.99023 42.7188 5.13086C43.0264 5.43848 43.1802 5.80322 43.1802 6.2251V21.3467C43.1802 22.4277 42.7979 23.3462 42.0332 24.1021C41.251 24.8667 40.3237 25.249 39.2515 25.249H36.918C36.584 25.249 36.2983 25.1348 36.061 24.9062C35.8325 24.6777 35.7183 24.3965 35.7183 24.0625C35.7183 23.7285 35.8325 23.4429 36.061 23.2056C36.2983 22.9771 36.584 22.8628 36.918 22.8628H38.4736C38.9219 22.8628 39.2559 22.7529 39.4756 22.5332C39.8535 22.1553 40.0425 21.751 40.0425 21.3203V18.4595C40.0425 18.2925 39.9941 18.1826 39.8975 18.1299C39.8096 18.0684 39.7217 18.0376 39.6338 18.0376C39.5459 18.0376 39.4668 18.0771 39.3965 18.1562L39.1724 18.3672C38.5747 18.9648 37.8848 19.2637 37.1025 19.2637C36.1533 19.2637 35.3667 18.877 34.7427 18.1035C34.1187 17.3389 33.8066 16.4248 33.8066 15.3613V6.2251C33.8066 5.55713 34.123 5.08691 34.7559 4.81445C34.9404 4.72656 35.1382 4.68262 35.3491 4.68262C35.5688 4.68262 35.7754 4.72217 35.9688 4.80127C36.1621 4.88037 36.3291 4.99023 36.4697 5.13086C36.7773 5.43848 36.9312 5.80322 36.9312 6.2251V15.3218C36.9312 15.7524 37.041 16.082 37.2607 16.3105C37.6299 16.6973 37.9771 16.8906 38.3022 16.8906C38.6274 16.8906 38.8823 16.8599 39.0669 16.7983C39.2603 16.728 39.4316 16.6313 39.5811 16.5083C39.8887 16.2446 40.0425 15.9019 40.0425 15.48V6.2251C40.0425 5.79443 40.1523 5.47363 40.3721 5.2627ZM52.1846 1.0835C53.5908 1.0835 54.7026 1.57129 55.52 2.54688C56.2495 3.42578 56.6143 4.52881 56.6143 5.85596C56.6143 7.33252 56.0781 8.73438 55.0059 10.0615C54.6807 10.457 54.3291 10.8657 53.9512 11.2876L51.855 13.6343C51.3276 14.2144 50.9937 14.6538 50.853 14.9526C50.6157 15.4448 50.4971 15.9985 50.4971 16.6138H55.4014C55.709 16.6138 55.9463 16.6973 56.1133 16.8643C56.4121 17.1631 56.5615 17.4795 56.5615 17.8135C56.5615 18.1387 56.4473 18.4199 56.2188 18.6572C55.999 18.8857 55.7266 19 55.4014 19H48.9282C48.4976 19 48.168 18.8857 47.9395 18.6572C47.5615 18.2793 47.3726 17.8662 47.3726 17.418V17.3916C47.3726 16.0381 47.5176 15.0273 47.8076 14.3594C48.1064 13.6914 48.4492 13.0981 48.8359 12.5796C49.2227 12.0522 49.7236 11.4546 50.3389 10.7866L52.6328 8.29492C52.9141 7.99609 53.147 7.61377 53.3315 7.14795C53.5249 6.67334 53.6216 6.2251 53.6216 5.80322C53.6216 5.37256 53.5601 5.0166 53.437 4.73535C53.3228 4.44531 53.1689 4.20801 52.9756 4.02344C52.5889 3.6543 52.1318 3.46973 51.6045 3.46973H49.0205C48.7041 3.46973 48.458 3.38184 48.2822 3.20605C47.9834 2.90723 47.834 2.59521 47.834 2.27002C47.834 1.94482 47.9482 1.66797 48.1768 1.43945C48.4141 1.20215 48.6953 1.0835 49.0205 1.0835H52.1846ZM74.3066 6.26465C74.3066 5.8252 74.4165 5.49121 74.6362 5.2627C75.0054 4.87598 75.3613 4.68262 75.7041 4.68262C76.0469 4.68262 76.3018 4.72217 76.4688 4.80127C76.6357 4.87158 76.7764 4.95508 76.8906 5.05176C77.0312 5.16602 77.1367 5.30225 77.207 5.46045C77.2773 5.61865 77.3389 5.73291 77.3916 5.80322C77.4531 5.87354 77.5366 5.90869 77.6421 5.90869C77.7476 5.90869 77.8354 5.87354 77.9058 5.80322C77.9761 5.72412 78.0903 5.60547 78.2485 5.44727C78.7759 4.9375 79.3516 4.68262 79.9756 4.68262C80.6084 4.68262 81.1313 4.78809 81.5444 4.99902C81.9663 5.20117 82.3354 5.48242 82.6519 5.84277C83.3374 6.60742 83.6802 7.52148 83.6802 8.58496V15.0977C83.6802 16.1787 83.2979 17.0972 82.5332 17.853C81.751 18.6177 80.8281 19 79.7646 19H77.4312V23.6934C77.4312 24.1328 77.3213 24.4624 77.1016 24.6821C76.7236 25.0601 76.3105 25.249 75.8623 25.249C75.4229 25.249 75.0933 25.1392 74.8735 24.9194C74.4956 24.5415 74.3066 24.1328 74.3066 23.6934V6.26465ZM80.5425 8.46631C80.5425 8.03564 80.3931 7.69287 80.0942 7.43799C79.8042 7.18311 79.4922 7.05566 79.1582 7.05566C78.833 7.05566 78.5737 7.09082 78.3804 7.16113C78.1958 7.22266 78.0332 7.31055 77.8926 7.4248C77.585 7.68848 77.4312 8.01367 77.4312 8.40039V16.6138H78.9868C79.4175 16.6138 79.7471 16.5039 79.9756 16.2842C80.3535 15.9238 80.5425 15.5195 80.5425 15.0713V8.46631ZM94.8203 16.6138C95.1543 16.6138 95.4355 16.7324 95.6641 16.9697C95.8926 17.207 96.0068 17.4927 96.0068 17.8267C96.0068 18.1519 95.8926 18.4287 95.6641 18.6572C95.4355 18.8857 95.1543 19 94.8203 19H91.709C90.6367 19 89.7183 18.6177 88.9536 17.853C88.189 17.0884 87.8066 16.1699 87.8066 15.0977V8.62451C87.8066 7.4292 88.2109 6.47559 89.0195 5.76367C89.8633 5.04297 91.0234 4.68262 92.5 4.68262C93.959 4.68262 95.1104 5.04297 95.9541 5.76367C96.7715 6.48438 97.1802 7.44678 97.1802 8.65088V12.3423C97.1802 12.7817 97.0703 13.1113 96.8506 13.3311C96.4727 13.709 96.0596 13.8979 95.6113 13.8979H90.9312V15.0713C90.9312 15.5195 91.041 15.8491 91.2607 16.0601C91.6475 16.4292 92.0562 16.6138 92.4868 16.6138H94.8203ZM94.0557 8.62451C94.0557 8.18506 93.9458 7.85547 93.7261 7.63574C93.3394 7.24902 92.9307 7.05566 92.5 7.05566C92.0605 7.05566 91.7266 7.16992 91.498 7.39844C91.1201 7.77637 90.9312 8.18506 90.9312 8.62451V11.5908H94.0557V8.62451ZM107.424 4.68262C107.644 4.68262 107.859 4.71338 108.07 4.7749C108.281 4.83643 108.479 4.93311 108.663 5.06494C109.085 5.37256 109.296 5.79883 109.296 6.34375C109.296 6.7832 109.182 7.11279 108.953 7.33252C108.558 7.71045 108.188 7.89941 107.846 7.89941C107.406 7.89941 107.006 7.75879 106.646 7.47754C106.365 7.29297 106.048 7.20068 105.697 7.20068C105.345 7.20068 105.068 7.31494 104.866 7.54346C104.664 7.76318 104.563 8.04443 104.563 8.38721V17.708C104.563 18.1299 104.453 18.4551 104.233 18.6836C103.838 19.0703 103.478 19.2637 103.152 19.2637C102.836 19.2637 102.581 19.2197 102.388 19.1318C102.203 19.0527 102.041 18.9429 101.9 18.8022C101.592 18.4946 101.438 18.1299 101.438 17.708V6.26465C101.438 5.83398 101.553 5.5 101.781 5.2627C102.15 4.87598 102.502 4.68262 102.836 4.68262C103.179 4.68262 103.434 4.72217 103.601 4.80127C103.768 4.87158 103.908 4.95508 104.022 5.05176C104.181 5.19238 104.295 5.3374 104.365 5.48682C104.436 5.62744 104.493 5.73291 104.537 5.80322C104.589 5.87354 104.668 5.90869 104.774 5.90869C104.888 5.90869 104.98 5.87354 105.051 5.80322L105.288 5.5791C105.974 4.98145 106.686 4.68262 107.424 4.68262ZM119.329 16.6138C119.663 16.6138 119.939 16.7324 120.159 16.9697C120.379 17.207 120.489 17.4927 120.489 17.8267C120.489 18.1519 120.379 18.4287 120.159 18.6572C119.939 18.8857 119.663 19 119.329 19H117.747C116.674 19 115.756 18.6177 114.991 17.853C114.235 17.0972 113.857 16.1787 113.857 15.0977V7.2666H112.302C111.801 7.2666 111.445 7.0293 111.234 6.55469C111.172 6.41406 111.142 6.26465 111.142 6.10645C111.142 5.60547 111.379 5.24951 111.854 5.03857C111.994 4.97705 112.144 4.94629 112.302 4.94629H113.857V2.2041C113.857 1.50977 114.174 1.02637 114.807 0.753906C114.991 0.666016 115.193 0.62207 115.413 0.62207C115.844 0.62207 116.169 0.736328 116.389 0.964844C116.775 1.34277 116.969 1.75586 116.969 2.2041V4.94629H119.355C119.663 4.94629 119.9 5.02979 120.067 5.19678C120.348 5.47803 120.489 5.78125 120.489 6.10645C120.489 6.42285 120.379 6.69531 120.159 6.92383C119.939 7.15234 119.671 7.2666 119.355 7.2666H116.969V15.0713C116.969 15.5107 117.083 15.8359 117.312 16.0469C117.698 16.4248 118.103 16.6138 118.524 16.6138H119.329ZM125.472 19C125.147 19 124.866 18.8857 124.628 18.6572C124.391 18.4287 124.272 18.1914 124.272 17.9453C124.272 17.6992 124.303 17.5059 124.365 17.3652C124.435 17.2158 124.527 17.084 124.642 16.9697C124.879 16.7324 125.156 16.6138 125.472 16.6138H128.386C128.922 16.6138 129.353 16.4644 129.678 16.1655C130.003 15.8579 130.166 15.48 130.166 15.0317C130.166 14.5835 130.042 14.2231 129.796 13.9507C129.55 13.6694 129.247 13.4717 128.887 13.3574L126.514 12.6982C125.696 12.4521 125.046 11.9951 124.562 11.3271C124.07 10.6504 123.824 9.93408 123.824 9.17822C123.824 8.42236 123.934 7.79834 124.154 7.30615C124.382 6.81396 124.686 6.39209 125.063 6.04053C125.846 5.31104 126.812 4.94629 127.964 4.94629H131.181C131.515 4.94629 131.792 5.06494 132.011 5.30225C132.231 5.53076 132.341 5.81201 132.341 6.146C132.341 6.47998 132.231 6.76123 132.011 6.98975C131.792 7.20947 131.515 7.31934 131.181 7.31934H128.214C127.766 7.31934 127.415 7.45117 127.16 7.71484C126.914 7.97852 126.791 8.29053 126.791 8.65088C126.791 9.21338 127.103 9.63525 127.727 9.9165L130.311 10.668C131.699 11.1338 132.622 12.0127 133.079 13.3047C133.229 13.7441 133.303 14.2495 133.303 14.8208C133.303 15.3921 133.185 15.937 132.947 16.4556C132.719 16.9741 132.411 17.4224 132.024 17.8003C131.207 18.6001 130.245 19 129.137 19H125.472Z" fill="black"/>
<path d="M60.8198 14.4912C60.8198 13.085 61.4702 12.1182 62.771 11.5908C62.1206 11.2393 61.6812 10.8833 61.4526 10.5229C61.0308 9.88135 60.8198 9.12988 60.8198 8.26855V6.26465C60.8198 5.8252 60.9297 5.49121 61.1494 5.2627C61.5186 4.87598 61.9229 4.68262 62.3623 4.68262C62.8018 4.68262 63.1357 4.79688 63.3643 5.02539C63.7422 5.40332 63.9312 5.81641 63.9312 6.26465V8.84863C63.9312 9.2793 64.041 9.60889 64.2607 9.8374C64.6211 10.2153 65.043 10.4043 65.5264 10.4043C66.1855 10.4043 66.6514 10.0879 66.9238 9.45508C67.0117 9.27051 67.0557 9.06836 67.0557 8.84863V6.26465C67.0557 5.57031 67.3721 5.08691 68.0049 4.81445C68.1895 4.72656 68.3916 4.68262 68.6113 4.68262C68.8398 4.68262 69.0464 4.72656 69.231 4.81445C69.4155 4.89355 69.5781 5.00342 69.7188 5.14404C70.0176 5.44287 70.167 5.81641 70.167 6.26465V8.26855C70.167 9.49902 69.7803 10.4307 69.0068 11.0635C68.7695 11.2568 68.5059 11.4326 68.2158 11.5908C69.5166 12.1182 70.167 13.085 70.167 14.4912V17.7212C70.167 18.1519 70.0571 18.4771 69.8374 18.6968C69.4595 19.0747 69.1035 19.2637 68.7695 19.2637C68.4443 19.2637 68.1851 19.2241 67.9917 19.145C67.8071 19.0659 67.6445 18.9561 67.5039 18.8154C67.2051 18.5166 67.0557 18.1519 67.0557 17.7212V14.3462C67.0557 13.9155 66.9502 13.5859 66.7393 13.3574C66.3613 12.9707 66.0054 12.7773 65.6714 12.7773C65.3462 12.7773 65.0869 12.8169 64.8936 12.896C64.7002 12.9751 64.5332 13.085 64.3926 13.2256C64.085 13.5156 63.9312 13.8892 63.9312 14.3462V17.7212C63.9312 18.1519 63.8213 18.4771 63.6016 18.6968C63.2236 19.0747 62.8105 19.2637 62.3623 19.2637C61.9141 19.2637 61.5845 19.1538 61.3735 18.9341C61.0044 18.5474 60.8198 18.1431 60.8198 17.7212V14.4912Z" fill="#E90000"/>
</svg>
